<svg xmlns="http://www.w3.org/2000/svg" xmlns:xlink="http://www.w3.org/1999/xlink" viewBox="0 0 108.46 31.62"><defs><style>.cls-1{fill:url(#linear-gradient);}.cls-2{fill:url(#linear-gradient-2);}.cls-3{fill:url(#linear-gradient-3);}.cls-4{fill:url(#linear-gradient-4);}.cls-5{fill:url(#linear-gradient-5);}.cls-6{fill:url(#linear-gradient-6);}.cls-7{fill:url(#linear-gradient-7);}.cls-8{fill:url(#linear-gradient-8);}.cls-9{fill:url(#linear-gradient-9);}.cls-10{fill:url(#linear-gradient-10);}.cls-11{fill:url(#linear-gradient-11);}.cls-12{fill:url(#linear-gradient-12);}.cls-13{fill:url(#linear-gradient-13);}.cls-14{fill:url(#linear-gradient-14);}.cls-15{fill:url(#linear-gradient-15);}.cls-16{fill:url(#linear-gradient-16);}.cls-17{fill:url(#linear-gradient-17);}.cls-18{fill:url(#linear-gradient-18);}.cls-19{fill:url(#linear-gradient-19);}.cls-20{fill:url(#linear-gradient-20);}.cls-21{fill:url(#linear-gradient-21);}.cls-22{fill:url(#linear-gradient-22);}.cls-23{font-size:15px;fill:#2c599b;font-family:Microsoft-Yi-Baiti, Microsoft Yi Baiti;font-style:italic;}</style><linearGradient id="linear-gradient" y1="14.48" x2="31.02" y2="14.48" gradientUnits="userSpaceOnUse"><stop offset="0" stop-color="#2c599b"/><stop offset="1" stop-color="#4285f4"/></linearGradient><linearGradient id="linear-gradient-2" y1="15.28" x2="31.02" y2="15.28" xlink:href="#linear-gradient"/><linearGradient id="linear-gradient-3" x1="8.85" y1="12.37" x2="17.47" y2="12.37" gradientUnits="userSpaceOnUse"><stop offset="0.01" stop-color="#4285f4"/><stop offset="1" stop-color="#2c599b"/></linearGradient><linearGradient id="linear-gradient-4" y1="13.27" x2="31.02" y2="13.27" gradientUnits="userSpaceOnUse"><stop offset="0" stop-color="#2c599b"/><stop offset="1" stop-color="#2c599b"/></linearGradient><linearGradient id="linear-gradient-5" x1="18.99" y1="13.27" x2="27.11" y2="13.27" xlink:href="#linear-gradient"/><linearGradient id="linear-gradient-6" x1="18.99" y1="19.66" x2="27.11" y2="19.66" gradientUnits="userSpaceOnUse"><stop offset="0" stop-color="#2c5a9d"/><stop offset="1" stop-color="#4183ef"/></linearGradient><linearGradient id="linear-gradient-7" x1="18.99" y1="11.9" x2="27.11" y2="11.9" xlink:href="#linear-gradient-4"/><linearGradient id="linear-gradient-8" x1="0" y1="21.47" x2="31.02" y2="21.47" xlink:href="#linear-gradient-4"/><linearGradient id="linear-gradient-9" x1="5.35" y1="21.47" x2="22.11" y2="21.47" xlink:href="#linear-gradient-4"/><linearGradient id="linear-gradient-10" x1="0" y1="21.49" x2="31.02" y2="21.49" xlink:href="#linear-gradient-4"/><linearGradient id="linear-gradient-11" x1="5.35" y1="21.49" x2="22.11" y2="21.49" xlink:href="#linear-gradient-4"/><linearGradient id="linear-gradient-12" y1="21.48" x2="31.02" y2="21.48" xlink:href="#linear-gradient"/><linearGradient id="linear-gradient-13" x1="5.35" y1="21.48" x2="22.11" y2="21.48" xlink:href="#linear-gradient-4"/><linearGradient id="linear-gradient-14" y1="20.91" x2="31.02" y2="20.91" xlink:href="#linear-gradient"/><linearGradient id="linear-gradient-15" x1="5.35" y1="20.91" x2="22.11" y2="20.91" gradientUnits="userSpaceOnUse"><stop offset="0" stop-color="#2c599c"/><stop offset="1" stop-color="#2e5da3"/></linearGradient><linearGradient id="linear-gradient-16" x1="5.35" y1="26.43" x2="22.11" y2="26.43" xlink:href="#linear-gradient-4"/><linearGradient id="linear-gradient-17" x1="5.35" y1="21.15" x2="22.11" y2="21.15" xlink:href="#linear-gradient-4"/><linearGradient id="linear-gradient-18" x1="10.16" y1="21.5" x2="15.32" y2="21.5" xlink:href="#linear-gradient"/><linearGradient id="linear-gradient-19" x1="5.35" y1="21.5" x2="22.11" y2="21.5" xlink:href="#linear-gradient-4"/><linearGradient id="linear-gradient-20" x1="18.99" y1="21.52" x2="27.11" y2="21.52" xlink:href="#linear-gradient"/><linearGradient id="linear-gradient-21" x1="5.35" y1="21.52" x2="22.11" y2="21.52" xlink:href="#linear-gradient-4"/><linearGradient id="linear-gradient-22" x1="16.55" y1="27.92" x2="22.18" y2="27.92" xlink:href="#linear-gradient-4"/></defs><g id="Layer_2" data-name="Layer 2"><g id="Layer_1-2" data-name="Layer 1"><path class="cls-1" d="M31,15.51A15.51,15.51,0,1,0,5.07,27v-5.2a2.6,2.6,0,0,1,.2-1,.87.87,0,0,0,0,.28.75.75,0,0,0,.13.42v-.25a2.64,2.64,0,0,1,.21-1,.87.87,0,0,0,0,.28h0A2.55,2.55,0,0,1,7.73,19,66.76,66.76,0,0,1,10.48,7.85l8.74,3a59,59,0,0,0-2,7.59c-.1.51-.19,1-.28,1.54s-.13.86-.19,1.29h.73c.06-.43.12-.86.19-1.29s.18-1,.27-1.52a57.79,57.79,0,0,1,2-7.72L13.08,8.37q.28-.58.6-1.17l8.18,4.28a56.32,56.32,0,0,0-3.09,7c-.18.49-.36,1-.52,1.49s-.28.86-.42,1.29h.76c.13-.43.27-.86.41-1.29s.34-1,.52-1.47a56.46,56.46,0,0,1,3.09-7L16.16,8.12l.78-1.07,7.42,5.49a58,58,0,0,0-3.87,6c-.27.48-.54,1-.79,1.44s-.45.86-.66,1.29h.81q.31-.64.66-1.29c.25-.47.51-.95.78-1.42a58.73,58.73,0,0,1,3.81-5.86L19.25,8.34l.93-.93,3.87,3.91L20.44,7.66l.19-.18,6.48,6.57a58.18,58.18,0,0,0-4.52,5,1,1,0,0,1,.63.92v9A15.48,15.48,0,0,0,31,15.51Z"/><path class="cls-2" d="M25.51,12.8l0-.06-.36-.26L26.67,14a54.16,54.16,0,0,0-3.77,4.1q1.79-2.14,3.77-4.11Z"/><polygon class="cls-3" points="17.47 10.66 10.89 8.55 8.85 16.19 11.18 9.1 17.47 10.66"/><path class="cls-4" d="M25.55,12.74l0,.06L26.67,14q-2,2-3.77,4.11c-.26.3-.51.61-.76.92h.09a1,1,0,0,1,.36.07,58.18,58.18,0,0,1,4.52-5L20.63,7.48l-.19.18,3.61,3.66,1.14,1.16Z"/><path class="cls-5" d="M25.55,12.74l0,.06L26.67,14q-2,2-3.77,4.11c-.26.3-.51.61-.76.92h.09a1,1,0,0,1,.36.07,58.18,58.18,0,0,1,4.52-5L20.63,7.48l-.19.18,3.61,3.66,1.14,1.16Z"/><path class="cls-6" d="M22.14,19c.25-.31.5-.62.76-.92-.53.63-1,1.26-1.54,1.91-.31.41-.62.83-.92,1.25h.5q.42-.6.87-1.17c.25-.34.51-.67.78-1a1,1,0,0,0-.36-.07Z"/><path class="cls-7" d="M25.19,12.48l-1.14-1.16,1.13,1.15Z"/><path class="cls-8" d="M17.39,21.7h0c0-.15,0-.31.07-.46h-.73c0,.15-.05.3-.07.45Z"/><path class="cls-9" d="M17.39,21.7h0c0-.15,0-.31.07-.46h-.73c0,.15-.05.3-.07.45Z"/><path class="cls-10" d="M18.8,21.73h.79l.26-.5H19l-.24.49Z"/><path class="cls-11" d="M18.8,21.73h.79l.26-.5H19l-.24.49Z"/><path class="cls-12" d="M17.69,21.71h.75l.15-.48h-.76c0,.16-.09.31-.14.47Z"/><path class="cls-13" d="M17.69,21.71h.75l.15-.48h-.76c0,.16-.09.31-.14.47Z"/><path class="cls-14" d="M5.46,21.6h.71a.75.75,0,0,1-.75-.75.87.87,0,0,1,0-.28l0,0,0,0h0a.87.87,0,0,1,0-.28,2.64,2.64,0,0,0-.21,1v.25A.69.69,0,0,0,5.46,21.6Z"/><path class="cls-15" d="M5.46,21.6h.71a.75.75,0,0,1-.75-.75.87.87,0,0,1,0-.28l0,0,0,0h0a.87.87,0,0,1,0-.28,2.64,2.64,0,0,0-.21,1v.25A.69.69,0,0,0,5.46,21.6Z"/><path class="cls-16" d="M22.11,22.23a1,1,0,0,0-1-1h-.16c-.14.18-.27.37-.4.56a1,1,0,0,1,1,1v2.76h.32v4.73h-.32v1.34h.59Z"/><path class="cls-17" d="M5.47,20.57a.87.87,0,0,0,0,.28.75.75,0,0,0,.75.75H5.46a.75.75,0,0,0,.51.2H20.05a.17.17,0,0,0,0-.05l.37-.51h-.59l-.26.5H18.8l.24-.49h-.45l-.15.48h-.75c0-.16.1-.31.14-.47h-.37c0,.15-.05.31-.07.46h-.73c0-.15,0-.3.07-.45h-6.2a4.68,4.68,0,0,0,.17.53,4.3,4.3,0,0,1-.25-.53H6.27a.75.75,0,0,1-.76-.74l0,0Z"/><path class="cls-18" d="M10.7,21.77a4.68,4.68,0,0,1-.17-.53h-.08A4.3,4.3,0,0,0,10.7,21.77Z"/><path class="cls-19" d="M10.7,21.77a4.68,4.68,0,0,1-.17-.53h-.08A4.3,4.3,0,0,0,10.7,21.77Z"/><path class="cls-20" d="M20.07,21.75a.17.17,0,0,1,0,.05h.49c.13-.19.26-.38.4-.56h-.5Z"/><path class="cls-21" d="M20.07,21.75a.17.17,0,0,1,0,.05h.49c.13-.19.26-.38.4-.56h-.5Z"/><path class="cls-22" d="M18.92,25.55a2.37,2.37,0,0,0-2.37,2.37h0a2.37,2.37,0,0,0,2.37,2.36h2.92V25.55Z"/><text class="cls-23" transform="translate(31.02 21.21)">NUNUA SASA</text></g></g></svg>